<svg width="26" height="20" viewBox="0 0 26 20" fill="none" xmlns="http://www.w3.org/2000/svg">
<g clip-path="url(#clip0_0_3)">
<path d="M15.3988 20C17.5105 20 19.2585 18.2635 18.8677 16.176C18.6227 14.8672 18.2519 13.5842 17.7591 12.3463C16.7931 9.91985 15.3772 7.715 13.5923 5.85786C11.8073 4.00069 9.68821 2.5275 7.35608 1.52241C6.20469 1.0262 5.0125 0.648876 3.79668 0.393997C1.72941 -0.0393704 0 1.72198 0 3.84615V16.1538C0 18.278 1.71186 20 3.82353 20H15.3988Z" fill="#615DFF"/>
<g style="mix-blend-mode:multiply">
<path d="M10.477 20.0002C8.36538 20.0002 6.6173 18.2636 7.00812 16.1762C7.25315 14.8674 7.62393 13.5843 8.1167 12.3465C9.08275 9.92004 10.4986 7.71519 12.2836 5.85805C14.0686 4.00088 16.1876 2.52769 18.5198 1.5226C19.6712 1.02639 20.8634 0.649065 22.0792 0.394186C24.1465 -0.0391816 25.8758 1.72217 25.8758 3.84634V16.154C25.8758 18.2782 24.164 20.0002 22.0523 20.0002H10.477Z" fill="#3DD9EB"/>
</g>
</g>
<defs>
<clipPath id="clip0_0_3">
<rect width="26" height="20" fill="white"/>
</clipPath>
</defs>
</svg>
